<svg xmlns="http://www.w3.org/2000/svg" xmlns:xlink="http://www.w3.org/1999/xlink" version="1.1" x="0px" y="0px" viewBox="0 0 169 34" xml:space="preserve" class="style0" preserveAspectRatio="xMinYMin meet"><style>.style0{enable-background:	new 0 0 169 34;}.style1{fill:	#A7A9AC;}</style><g><path d="M111.4 1.1L112 0H59.8l0.6 1.1c6 9.8 6 22.1 0 31.8L59.8 34H112l-0.6-1.1C105.5 23.1 105.5 10.8 111.4 1.1z M80 12h-5v10h5v1h-6V11h6V12z M84.5 23h-1.3l4.1-12h1.3L84.5 23z M98 23h-6v-1h5V12h-5v-1h6V23z" class="style1"/><g><g><g><path d="M8.2 16c-0.8-0.8-1.8-1.2-3.2-1.2c-2.1 0-3.5 1.2-3.5 2.8c0 1.7 1.4 2.8 3.6 2.8c1.3 0 2.3-0.4 3.1-1.2 l1.1 0.6C8.1 21 6.8 21.5 5 21.5c-1.3 0-2.5-0.4-3.3-1c-1-0.8-1.5-1.7-1.5-3c0-1.2 0.5-2.2 1.5-2.9c0.8-0.6 2-1 3.3-1 c1.8 0 3.3 0.7 4.3 1.9L8.2 16z" class="style1"/><path d="M22.4 21.3l-0.9-1.7h-5l-0.9 1.7h-1.3l3.9-7.4h1.6l3.9 7.4H22.4z M19 14.9l-1.9 3.6h3.8L19 14.9z" class="style1"/><path d="M32.6 14.8c-1.5 0-2.4 0.4-2.4 1c0 0.3 0.2 0.6 0.6 0.7c0.8 0.3 2 0.2 3.5 0.4c1.9 0.2 2.7 0.9 2.7 2.1 c0 1.6-1.4 2.5-4.1 2.5c-1.9 0-3.4-0.4-4.4-1.3l0.7-0.9c1.2 0.7 2.4 1.1 3.8 1.1c1.8 0 2.7-0.5 2.7-1.3c0-1.1-1.3-1.1-3.5-1.2 c-2.3-0.2-3.4-0.5-3.4-1.9c0-1.4 1.3-2.3 3.8-2.3c1.6 0 3 0.4 4 1.1l-0.8 0.8C34.8 15.1 33.7 14.8 32.6 14.8z" class="style1"/><path d="M47.1 15v6.3h-1.2V15h-3.6v-1.1h8.4V15H47.1z" class="style1"/></g><g><path d="M120 21.3v-7.4h1.2v7.4H120z" class="style1"/><path d="M135.7 21.3l-2-2.8h-3.8v2.8h-1.2v-7.4h5.9c1.6 0 2.5 0.9 2.5 2.3c0 1.3-0.8 2-1.9 2.2l2 2.9H135.7z M135.8 16.2c0-0.8-0.5-1.2-1.5-1.2h-4.3v2.4h4.5C135.3 17.4 135.8 17 135.8 16.2z" class="style1"/><path d="M151.7 20.6c-0.8 0.6-2 1-3.3 1c-1.3 0-2.5-0.4-3.3-1c-1-0.8-1.5-1.7-1.5-3c0-1.2 0.5-2.2 1.5-2.9 c0.8-0.6 2-1 3.3-1c1.3 0 2.4 0.4 3.3 1c1 0.8 1.5 1.8 1.5 2.9C153.2 18.8 152.7 19.8 151.7 20.6z M150.8 15.5 c-0.6-0.4-1.4-0.7-2.4-0.7c-2.1 0-3.5 1.2-3.5 2.8c0 1.7 1.4 2.8 3.5 2.8c2.1 0 3.5-1.2 3.5-2.8C151.9 16.7 151.6 16 150.8 15.5 z" class="style1"/><path d="M167.3 21.3l-5.7-6.1v6.1h-1.2v-7.4h1.5l5.7 6.1v-6.1h1.2v7.4H167.3z" class="style1"/></g></g></g></g></svg>