<svg xmlns="http://www.w3.org/2000/svg" xmlns:xlink="http://www.w3.org/1999/xlink" version="1.1" x="0px" y="0px" viewBox="0 0 121 84" style="enable-background:new 0 0 121 84;" xml:space="preserve"><g><polygon style="fill:#A7A9AC;" points="28.3,29.7 28.3,11.3 32.7,11.3 32.7,9.2 21.7,9.2 21.7,11.3 26,11.3 26,29.7"/><polygon style="fill:#A7A9AC;" points="44.5,11.3 44.5,9.2 35.1,9.2 35.1,29.7 44.5,29.7 44.5,27.6 37.4,27.6 37.4,20.4 44.1,20.4 44.1,18.3 37.4,18.3 37.4,11.3"/><path style="fill:#A7A9AC;" d="M54.1 9.2h-2.9l-5 20.6h2.3l1.1-5h5.6l1.1 5h2.4L54.1 9.2z M50.1 22.6c0 0 2-8.5 2.1-8.9c0-0.3 0.3-2 0.3-2 s0.2 1.8 0.3 2c0.1 0.3 1.9 8.9 1.9 8.9H50.1z"/><path style="fill:#A7A9AC;" d="M71.4 26.6c0.4-1.2 0.6-2.5 0.6-3.9h-2.3c0 1-0.1 2.2-0.5 3.4c-0.5 1.3-1.6 1.7-2.8 1.7 c-1.1 0-2.3-0.4-2.9-1.6c-0.5-1-0.8-4.4-0.8-6.9c0-2.6 0.1-5.2 0.8-6.6c0.5-1.1 1.4-1.6 2.9-1.6c1.4 0 2.3 0.5 2.8 1.5 c0.4 0.8 0.6 2.6 0.6 3.6H72c0-1.6-0.2-2.9-0.6-4.3c-0.6-1.8-2.5-3-5-3c-2.5 0-4.2 1-5.1 2.8c-0.8 1.6-1 3.9-1 7.6 c0 3 0.3 6.4 1.3 8.1c1 1.8 2.5 2.5 4.8 2.5C68.8 29.9 70.7 28.9 71.4 26.6z"/><polygon style="fill:#A7A9AC;" points="83.3,29.7 85.6,29.7 85.6,9.2 83.3,9.2 83.3,18.3 77.3,18.3 77.3,9.2 75,9.2 75,29.7 77.3,29.7 77.3,20.5 83.3,20.5"/><rect x="89.4" y="9.2" style="fill:#A7A9AC;" width="2.4" height="20.6"/><polygon style="fill:#A7A9AC;" points="97.8,14 103.5,29.7 106.1,29.7 106.1,9.2 103.9,9.2 103.9,24.7 98.3,9.2 95.6,9.2 95.6,29.7 97.8,29.7"/><path style="fill:#A7A9AC;" d="M115.1 11.2c2.6 0 3.1 2.1 3.1 4.7h2.2c0-3.6-1.1-6.9-5.4-6.9c-4.8 0-5.9 3.6-5.9 10.5 c0 8 1.7 10.5 5.6 10.5c2.1 0 3.3-0.9 3.8-1.8l0.1 1.6h1.8c0 0 0-2.6 0-5c0-1.3 0-6.1 0-6.1h-6.1v2.1h4v4.8 c-0.3 1.4-1.4 2.5-3.2 2.5c-3.1 0-3.5-2.3-3.5-8.4C111.6 13 112.2 11.2 115.1 11.2z"/><path style="fill:#A7A9AC;" d="M26 54.5c1.6 0 2.9-0.4 4-1.4l1.1 1.3h2.5l-2.3-2.8c0.8-1.3 1.3-3 1.3-5.2h-1.7c0 1.4-0.4 2.7-0.8 3.8 c-1.4-1.8-2.5-3.3-3.3-4.6c1.5-1.4 2.8-2.9 2.9-4.8c0-0.1 0-0.8 0-0.9c-0.1-1.8-1.1-3-3.1-3c-2.1 0-3.4 1.2-3.4 3.1 c0 0.4 0 0.9 0 1.1c0 1.2 0.4 2.5 1.3 4.2c-1.4 1.2-2.6 2.5-2.7 4.3c0 0.3 0 1 0 1.3C21.9 53.6 23.7 54.5 26 54.5z M24.8 40.1 c0-0.9 0.6-1.6 1.5-1.6c0.9 0 1.4 0.6 1.4 1.5c0 0.1 0 0.7 0 0.9c0 1.2-1 2.4-2 3.2c-0.7-1.2-1-2.1-1-3 C24.8 41 24.8 40.2 24.8 40.1z M25.3 46.8c0.8 1.3 1.9 2.9 3.5 4.8c-0.9 0.9-1.8 1.1-3 1.1c-1.2 0-2.3-0.6-2.3-2.6 C23.5 48.9 24.3 47.8 25.3 46.8z"/><polygon style="fill:#A7A9AC;" points="46.5,52.4 40.8,52.4 40.8,37 38.9,37 38.9,54.2 46.5,54.2"/><polygon style="fill:#A7A9AC;" points="56.6,38.9 56.6,37 48.7,37 48.7,54.2 56.6,54.2 56.6,52.4 50.6,52.4 50.6,46.5 56.2,46.5 56.2,44.7 50.6,44.7 50.6,38.9"/><path style="fill:#A7A9AC;" d="M60.9 50h4.7l0.9 4.2h2L64.6 37h-2.4L58 54.2H60L60.9 50z M63.1 40.9c0-0.2 0.3-1.7 0.3-1.7s0.2 1.5 0.2 1.7 c0 0.2 1.6 7.4 1.6 7.4h-3.9C61.3 48.3 63 41.2 63.1 40.9z"/><path style="fill:#A7A9AC;" d="M72.4 46.5h3l2.6 7.7h1.9l-2.6-8.1c0.6-0.2 1.1-0.7 1.4-1.4c0.3-0.6 0.4-1.6 0.4-2.9c0-1.3-0.1-2.3-0.4-2.9 c-0.5-1.2-1.3-1.9-3-1.9h-5.2v17.2h1.9V46.5z M72.4 38.8h2.9c0.9 0 1.4 0.5 1.6 1.1c0.1 0.3 0.1 1.3 0.1 2.1c0 0.6-0.1 1.6-0.2 2 c-0.2 0.5-0.6 0.7-1.3 0.8c-0.1 0-3.2 0-3.2 0C72.4 44.6 72.4 38.8 72.4 38.8z"/><polygon style="fill:#A7A9AC;" points="83.9,41.1 88.8,54.2 90.9,54.2 90.9,37 89.1,37 89.1,50.1 84.4,37 82.1,37 82.1,54.2 83.9,54.2"/><rect x="94.1" y="37" style="fill:#A7A9AC;" width="2" height="17.2"/><polygon style="fill:#A7A9AC;" points="101.1,41.1 105.9,54.2 108.1,54.2 108.1,37 106.3,37 106.3,50.1 101.5,37 99.3,37 99.3,54.2 101.1,54.2"/><path style="fill:#A7A9AC;" d="M115.6 38.7c2.1 0 2.6 1.8 2.6 3.9h1.9c0-3.1-0.9-5.8-4.5-5.8c-4 0-4.9 3-4.9 8.8c0 6.7 1.4 8.8 4.7 8.8 c1.8 0 2.8-0.8 3.2-1.5l0.1 1.3h1.5c0 0 0-2.2 0-4.2c0-1.1 0-5.1 0-5.1H115v1.8h3.3v4c-0.3 1.1-1.2 2.1-2.7 2.1c-2.6 0-3-1.9-3-7.1 C112.7 40.3 113.2 38.7 115.6 38.7z"/><path style="fill:#A7A9AC;" d="M1.6 55.9c0.6 0.3 1.5 0.4 2.9 0.4c1.2 0 2.5-0.1 3.1-0.5c0.7-0.4 1-1 1-1.9c0-1-0.4-1.7-1.3-2 c-0.5-0.2-1-0.2-1.5-0.2v0.9c0.4 0 0.9 0 1.3 0.2c0.5 0.2 0.7 0.6 0.7 1.1c0 0.4-0.1 0.9-0.6 1.1c-0.4 0.2-1.7 0.3-2.7 0.3 c-1 0-2 0-2.6-0.3c-0.4-0.2-0.6-0.6-0.6-1.1c0-0.5 0.2-0.9 0.6-1.1c0.3-0.2 1-0.2 1.4-0.2v-0.9c-0.6 0-1.1 0.1-1.7 0.3 c-0.7 0.3-1.2 1-1.2 2C0.5 54.9 0.8 55.5 1.6 55.9z"/><polygon style="fill:#A7A9AC;" points="0.5,46.9 0.5,50.5 8.5,50.5 8.5,46.8 7.7,46.8 7.7,49.6 4.9,49.6 4.9,47 4.1,47 4.1,49.6 1.4,49.6 1.4,46.9"/><polygon style="fill:#A7A9AC;" points="8.5,41.6 0.5,41.6 0.5,42.4 6.6,42.4 0.5,44.6 0.5,45.7 8.5,45.7 8.5,44.8 2.4,44.8 8.5,42.6"/><polygon style="fill:#A7A9AC;" points="8.5,38 1.4,38 1.4,36.3 0.5,36.3 0.5,40.6 1.4,40.6 1.4,38.9 8.5,38.9"/><polygon style="fill:#A7A9AC;" points="8.5,31.7 7.7,31.7 7.7,34.5 4.9,34.5 4.9,31.9 4.1,31.9 4.1,34.5 1.4,34.5 1.4,31.7 0.5,31.7 0.5,35.4 8.5,35.4"/><path style="fill:#A7A9AC;" d="M8.5 27.1v-0.9l-3.8 1.2c-0.1-0.3-0.3-0.5-0.6-0.7c-0.3-0.1-0.7-0.2-1.4-0.2c-0.6 0-1.1 0.1-1.3 0.2 c-0.5 0.2-0.9 0.6-0.9 1.4v2.4h8v-0.9H4.9v-1.4L8.5 27.1z M1.4 29.6v-1.4c0-0.4 0.2-0.7 0.5-0.8c0.1 0 0.6-0.1 1-0.1 c0.3 0 0.7 0 0.9 0.1c0.2 0.1 0.3 0.3 0.4 0.6c0 0 0 1.5 0 1.5C4 29.6 1.4 29.6 1.4 29.6z"/><polygon style="fill:#A7A9AC;" points="8.5,21.9 4.9,21.9 4.9,19.3 4.1,19.3 4.1,21.9 1.4,21.9 1.4,19.1 0.5,19.1 0.5,22.8 8.5,22.8"/><path style="fill:#A7A9AC;" d="M1.6 17.9c0.7 0.3 1.6 0.4 2.9 0.4c1.5 0 2.4-0.2 2.9-0.4C8.2 17.6 8.6 17 8.6 16c0-1-0.4-1.6-1.2-1.9 c-0.6-0.3-1.5-0.4-3-0.4c-1.3 0-2.3 0.1-2.9 0.4c-0.7 0.3-1.1 0.9-1.1 2C0.5 17 0.9 17.6 1.6 17.9z M2 14.8 c0.5-0.2 1.7-0.3 2.5-0.3c1.3 0 2.2 0.1 2.7 0.3C7.6 15 7.8 15.4 7.8 16c0 0.4-0.2 0.9-0.7 1.1c-0.6 0.2-1.7 0.3-2.6 0.3 c-0.8 0-2.1-0.1-2.6-0.3c-0.4-0.2-0.7-0.5-0.7-1.1C1.3 15.4 1.6 15 2 14.8z"/><path style="fill:#A7A9AC;" d="M8.5 8.9V8L4.8 9.3C4.7 9 4.4 8.7 4.1 8.6C3.8 8.5 3.4 8.4 2.8 8.4c-0.6 0-1.1 0.1-1.3 0.2 C0.9 8.8 0.5 9.2 0.5 10v2.4h8v-0.9H4.9v-1.4L8.5 8.9z M1.4 11.5v-1.4c0-0.4 0.2-0.7 0.5-0.8c0.1 0 0.6-0.1 1-0.1 c0.3 0 0.7 0 0.9 0.1C4 9.5 4.1 9.7 4.1 10c0 0 0 1.5 0 1.5C4 11.5 1.4 11.5 1.4 11.5z"/><polygon style="fill:#A7A9AC;" points="15.9,2.1 120.4,2.1 120.4,0.8 0.4,0.8 0.4,2.1 14.5,2.1 14.5,61.4 0.4,61.4 0.4,62.7 120.4,62.7 120.4,61.4 15.9,61.4"/><path style="fill:#A7A9AC;" d="M39 81.3V73c0-1 0.4-1.3 0.4-1.3c-0.2 0.2-4.2 2.5-4.2 2.5C36 74 35.9 75 35.9 75c0 0.2 0 4.7 0 4.7 c0 1.5-1.4 1.7-1.4 1.7c-2.2 0.3-2.2-1.3-2.2-1.3c-0.1-0.3 0-2.9 0-2.9c-0.1-1.3 0.4-1.8 0.4-1.8L29 77.6c0.6-0.2 0.6 0.7 0.6 0.7 c0 1 0.1 2.9 0.1 2.9c0.2 1.8 2.5 1.7 2.5 1.7c2.7 0 3.7-1.5 3.7-1.5l0 1.2c0.3 0 3.8 0 3.8 0C38.9 82.5 39 81.3 39 81.3z"/><path style="fill:#A7A9AC;" d="M60.9 81.5c0-1.4 0-6.4-0.1-7.5c-0.2-2.6-3.3-2.1-3.3-2.1c-2.8 0.4-3.5 2.2-3.5 2.2c0-0.3-0.1-6.7-0.1-6.7 l-3.6 2.1c0.8-0.3 0.7 1.3 0.7 1.3c0 0.5 0.1 10.6 0.1 10.6c0 1-0.8 1.4-0.8 1.4c2.2 0 2.1 0 4.5 0C54 82.3 54 81.3 54 81.3 c0-0.6-0.1-4.6 0.1-5.6c0.2-2 2-2.1 2-2.1c1.6 0 1.7 1.6 1.7 1.6c0.1 0.5 0 6.3 0 6.3c0 1-0.7 1.2-0.7 1.2c0.2 0 4.5 0 4.5 0 C60.9 82.5 60.9 81.5 60.9 81.5z"/><path style="fill:#A7A9AC;" d="M7.9 74.3c2.9-1.7 3.2-3.3 3.2-3.7c0.1-2.6-2.4-2.9-2.4-2.9c-0.6-0.2-8.3-0.1-8.3-0.1 c0.8 0.4 0.7 1.2 0.7 1.2c0 0.3 0.1 12.4 0.1 12.4c-0.1 1.2-0.9 1.4-0.9 1.4c0.2 0 8.3 0 8.3 0c4.4-0.2 3.8-4.3 3.8-4.3 C12 74.8 7.9 74.3 7.9 74.3z M7.1 81.9c0 0-2.5 0.4-2.5-0.9c-0.1-1.4 0-7.1 0-7.1l-0.1-4.6c0-1 1.3-1 1.3-1c2.8 0 2.5 2.8 2.5 2.8 c0 1.5-2.3 3.4-2.3 3.4l0 0l0 0c0.2 0.1 3.2 0.7 3.4 4.4C9.3 79 9.6 81.6 7.1 81.9z"/><path style="fill:#A7A9AC;" d="M27.2 81.4c0-0.2 0-5 0-5c0-1.5 0.6-1.9 0.6-1.9c0.4-0.4 1.5-1 1.8 0c0.1 0.2 0 0.5-0.1 0.8 c-0.2 0.5-0.4 0.7-0.4 0.7s3.3-1.8 3.3-1.9c0.1-2.7-2.7-2.1-2.7-2.1c-2.2 0.4-2.6 2.5-2.6 2.5l0-2.3l-3.9 2.2 c0.8-0.2 0.8 1.1 0.8 1.1c0 0.2 0 5.1-0.1 6c0 0.9-0.7 1.2-0.7 1.2c0 0 4.7 0 4.7 0C27.2 82.5 27.2 81.4 27.2 81.4z"/><path style="fill:#A7A9AC;" d="M22.3 81c0-0.8 0.2-5.8 0.2-5.8c-0.4-3.5-4.1-3.3-4.1-3.3c-2.1 0-4 1.4-4 1.4l-0.1 3.1 c1.4-2.5 2.8-3.5 3.8-3.4c1.6 0.1 1.5 1.7 0.8 2.4c-0.7 0.7-1.4 0.7-3.5 1.7c-2.2 0.9-2.4 2.4-2.4 2.7c0 2.7 2.9 3 2.9 3 c1.8 0.2 2.5-0.3 2.5-0.3c0-0.2 0-1.5 0-1.5c-0.4 0.3-0.5 0.4-0.9 0.4c-1.5 0-1.3-1.5-1.2-1.9c0.3-1.4 3.1-3 3.1-3 c0.1 0.5-0.2 6.1-0.2 6.1h4.1C22.2 82.4 22.3 81 22.3 81z"/><path style="fill:#A7A9AC;" d="M46.3 81.9c0 0-3 0.4-3.6-4.2c-0.6-4.2 2-4.8 2.7-4.8c0.4 0 2.5 0.2 2.4 3.4l2-2.4c0 0-1.5-2.3-5.2-2 c-4.2 0.4-5.2 3.9-5.1 5.1c0 0.8-0.2 5 4.6 6c0 0 2.5 0.6 5.5-1.2l0.7-2.9C50.3 79.1 48.5 81.9 46.3 81.9z"/><path style="fill:#A7A9AC;" d="M62.5 77.4c0 3 2.6 5.4 5.5 5.4c1.3 0 2.5-0.5 3.5-1.3v-0.9c-0.8 1-2.3 1.6-3.5 1.6c-1.2 0-2.5-0.6-3.4-1.5 c-0.9-0.9-1.4-2-1.4-3.3c0-2.6 2.2-4.9 4.8-4.9c1.3 0 2.7 0.7 3.5 1.7v-0.9C70.6 72.5 69.3 72 68 72C65 72 62.5 74.4 62.5 77.4z"/><path style="fill:#A7A9AC;" d="M77.9 72c-3 0-5.5 2.4-5.5 5.4c0 3 2.5 5.4 5.5 5.4c3 0 5.5-2.4 5.5-5.4C83.4 74.4 80.9 72 77.9 72z M77.9 82.2c-2.6 0-4.8-2.2-4.8-4.8c0-2.6 2.2-4.8 4.8-4.8c2.6 0 4.8 2.2 4.8 4.8C82.7 80 80.5 82.2 77.9 82.2z"/><polygon style="fill:#A7A9AC;" points="85.9,72.1 85.3,72.1 85.3,82.7 88.6,82.7 88.6,82 85.9,82"/><polygon style="fill:#A7A9AC;" points="91.1,72.1 90.4,72.1 90.4,82.7 93.8,82.7 93.8,82 91.1,82"/><polygon style="fill:#A7A9AC;" points="95.5,82.7 100.6,82.7 100.6,82 96.2,82 96.2,77.2 100.5,77.2 100.5,76.6 96.2,76.6 96.2,72.8 100.6,72.8 100.6,72.1 95.5,72.1"/><path style="fill:#A7A9AC;" d="M108 78.2h3.8c0 1.1-0.4 2-1.3 2.8c-0.9 0.7-2 1.2-3.1 1.2c-2.6 0-4.8-2.2-4.8-4.8c0-2.5 2.2-4.8 4.8-4.8 c1.7 0 3.1 0.9 4.1 2.3l0.5-0.4c-1.1-1.5-2.7-2.5-4.6-2.5c-3 0-5.5 2.4-5.5 5.5c0 2.9 2.5 5.4 5.4 5.4c1.5 0 3-0.6 4-1.7 c0.9-1 1.1-2.2 1.1-3.5H108V78.2z"/><polygon style="fill:#A7A9AC;" points="114.4,82.7 119.4,82.7 119.4,82 115,82 115,77.2 119.3,77.2 119.3,76.6 115,76.6 115,72.8 119.4,72.8 119.4,72.1 114.4,72.1"/></g></svg>