<svg xmlns="http://www.w3.org/2000/svg" xmlns:xlink="http://www.w3.org/1999/xlink" version="1.1" x="0px" y="0px" viewBox="0 0 194 27" style="enable-background:new 0 0 194 27;" xml:space="preserve"><g><path style="fill:#FFFFFF;" d="M46.8 17.4l6.1-3.6c0 0-0.8 0.8-0.7 2.9c0 0-0.1 4.2 0 4.7c0 0 0.1 2.6 3.6 2.1c0 0 2.2-0.4 2.2-2.8 c0 0 0-7.3 0-7.7c0 0 0.1-1.6-1.2-1.3c0 0 6.4-3.7 6.8-4c0 0-0.6 0.4-0.7 2v13.5c0 0 0 2 1.2 2.3c0 0-5.7 0.1-6.1 0l0-2 c0 0-1.7 2.4-6.1 2.4c0 0-3.8 0.1-4.1-2.8c0 0-0.2-3.2-0.2-4.8C47.8 18.4 47.9 17 46.8 17.4"/><path style="fill:#FFFFFF;" d="M81.4 4l5.9-3.4c0 0 0.1 10.5 0.1 10.9c0 0 1.2-2.8 5.7-3.5c0 0 5.1-0.8 5.4 3.3c0.1 1.7 0.1 9.9 0.1 12.2 c0 0 0 1.7 1.2 2c0 0-7 0-7.3 0c0 0 1-0.4 1.1-2c0 0 0.1-9.4 0-10.2c0 0 0-2.6-2.7-2.6c0 0-2.9 0.2-3.3 3.4 c-0.2 1.6-0.1 8.2-0.1 9.2c0 0-0.1 1.5 1.2 2.3c-3.8 0-3.7 0-7.3 0c0 0 1.2-0.5 1.2-2.2c0 0-0.1-16.4-0.1-17.2 C82.5 6.1 82.6 3.5 81.4 4"/><path style="fill:#FFFFFF;" d="M20.1 18.5c-0.8-5.7-7.5-6.6-7.5-6.6c4.8-2.8 5.2-5.3 5.2-5.9c0.1-4.3-3.9-4.8-3.9-4.8 c-1-0.3-13.5-0.1-13.5-0.1c1.2 0.7 1.2 2 1.2 2c0.1 0.5 0.2 20.2 0.2 20.2c-0.2 1.9-1.4 2.3-1.4 2.3c0.3 0 13.4-0.1 13.4-0.1 C21 25.1 20.1 18.5 20.1 18.5 M11.2 24.2c0 0-4 0.7-4.1-1.5c-0.2-2.2 0-11.5 0-11.5L7 3.8c0-1.6 2.1-1.5 2.1-1.5c4.5 0 4 4.5 4 4.5 c0 2.5-3.8 5.5-3.8 5.5l0 0l0 0c0.4 0.1 5.1 1.2 5.5 7.2C14.9 19.5 15.4 23.7 11.2 24.2z"/><path style="fill:#FFFFFF;" d="M37.5 12.1l6.3-3.5l0.1 3.7c0 0 0.7-3.5 4.2-4.1c0 0 4.5-0.9 4.4 3.5c0 0.1-5.4 3-5.4 3s0.3-0.3 0.6-1.1 c0.2-0.4 0.2-0.9 0.1-1.3c-0.5-1.6-2.3-0.8-2.9-0.1c0 0-0.9 0.6-0.9 3.1c0 0 0 7.8 0 8.2c0 0 0 1.7 1.1 2.1c0 0-7.5 0-7.6 0 c0 0 1-0.5 1.1-1.9c0.1-1.4 0.2-9.4 0.2-9.8C38.8 13.8 38.9 11.7 37.5 12.1"/><g><path style="fill:#FFFFFF;" d="M22.9 15.2l0.1-5.1c0 0 3-2.2 6.5-2.3c0 0 5.9-0.2 6.6 5.4c0 0-0.2 8.2-0.2 9.5c0 0-0.1 2.3 1.5 2.8h-6.6 c0 0 0.4-9.1 0.2-9.9c0 0-4.6 2.6-5 4.9c-0.1 0.7-0.4 3.1 2 3.1c0.6 0 0.9-0.2 1.5-0.7c0 0 0 2.1 0 2.4c0 0-1.1 0.8-4.1 0.5 c0 0-4.7-0.4-4.7-4.9c0-0.6 0.3-2.9 3.9-4.4c3.5-1.5 4.6-1.7 5.7-2.7c1.2-1.1 1.3-3.7-1.2-3.9C27.5 9.6 25.1 11.1 22.9 15.2"/><path style="fill:#FFFFFF;" d="M77.3 15.2l3.3-3.8c0 0-2.4-3.8-8.4-3.2c-6.8 0.7-8.4 6.3-8.3 8.3c0 1.4-0.3 8.1 7.5 9.8c0 0 4.1 1 8.9-1.9 l1.1-4.7c0 0-2.9 4.5-6.5 4.6c0 0-4.9 0.7-5.9-6.9c-0.9-6.9 3.3-7.7 4.4-7.7C74 9.7 77.5 10 77.3 15.2"/></g><path style="fill:#FFFFFF;" d="M115.9 11.9c-1.3-1.6-3.6-2.7-5.7-2.7c-4.3 0-7.8 3.7-7.8 7.9c0 2 0.9 3.9 2.3 5.3c1.4 1.4 3.5 2.4 5.5 2.4 c2 0 4.5-1.1 5.7-2.6v1.5c-1.6 1.3-3.6 2.1-5.7 2.1c-4.8 0-8.9-4-8.9-8.8c0-4.9 4.1-8.8 8.9-8.8c2.1 0 4.2 0.8 5.7 2.2V11.9"/><path style="fill:#FFFFFF;" d="M126.2 9.2c4.2 0 7.8 3.5 7.8 7.8c0 4.2-3.5 7.8-7.8 7.8c-4.3 0-7.8-3.5-7.8-7.8 C118.4 12.7 121.9 9.2 126.2 9.2 M126.2 8.2c-4.8 0-8.9 4-8.9 8.8c0 4.8 4.1 8.8 8.9 8.8c4.8 0 8.9-4 8.9-8.8 C135.1 12.2 131 8.2 126.2 8.2z"/><polyline style="fill:#FFFFFF;" points="139.3,24.5 143.6,24.5 143.6,25.5 138.2,25.5 138.2,8.4 139.3,8.4 139.3,24.5"/><polyline style="fill:#FFFFFF;" points="147.6,24.5 152,24.5 152,25.5 146.5,25.5 146.5,8.4 147.6,8.4 147.6,24.5"/><polyline style="fill:#FFFFFF;" points="155.9,9.4 155.9,15.7 162.8,15.7 162.8,16.7 155.9,16.7 155.9,24.5 163,24.5 163,25.5 154.8,25.5 154.8,8.4 163,8.4 163,9.4 155.9,9.4"/><path style="fill:#FFFFFF;" d="M182.3 17.3c0 2.2-0.3 4-1.8 5.7c-1.6 1.8-4.1 2.8-6.5 2.8c-4.7 0-8.8-4-8.8-8.7c0-4.9 4-8.8 8.9-8.8 c3.1 0 5.6 1.5 7.4 4l-0.9 0.7c-1.5-2.3-3.8-3.7-6.6-3.7c-4.2 0-7.8 3.7-7.8 7.8c0 4.2 3.5 7.8 7.8 7.8c1.8 0 3.6-0.8 5-1.9 c1.5-1.2 2-2.7 2.1-4.5h-6.1v-1H182.3"/><polyline style="fill:#FFFFFF;" points="186.5,9.4 186.5,15.7 193.4,15.7 193.4,16.7 186.5,16.7 186.5,24.5 193.6,24.5 193.6,25.5 185.4,25.5 185.4,8.4 193.6,8.4 193.6,9.4 186.5,9.4"/></g></svg>