<svg xmlns="http://www.w3.org/2000/svg" xmlns:xlink="http://www.w3.org/1999/xlink" version="1.1" x="0px" y="0px" viewBox="0 0 90 21" xml:space="preserve" class="style0" preserveAspectRatio="xMinYMin meet"><style>.style0{enable-background:	new 0 0 90 21;}.style1{fill:	#FFFFFF;}</style><path d="M28.2 1.8c-5.9 0-8.6 4.4-8.6 8.8c0 4.3 2.7 8.8 8.6 8.8c5.9 0 8.6-4.6 8.6-8.8c0-2.6-0.9-4.8-2.5-6.5 C32.8 2.6 30.7 1.8 28.2 1.8z M28.2 17.2c-4.4 0-6.4-3.4-6.4-6.7c0-2 0.6-3.7 1.8-4.9c1.1-1.1 2.7-1.7 4.6-1.7 c4.4 0 6.4 3.3 6.4 6.6C34.6 13.8 32.6 17.2 28.2 17.2z" class="style1"/><path d="M49.2 4c1.8 0 3.4 0.7 4.6 1.9l0.3 0.3l1.6-1.4l-0.4-0.4c-1.7-1.6-3.9-2.6-6.2-2.6c-2.6 0-4.7 0.8-6.3 2.4 c-1.6 1.6-2.5 3.9-2.4 6.4c0 4.3 2.7 8.6 8.8 8.6c2.4 0 4.6-0.9 6.2-2.6l0.4-0.4l-1.6-1.5l-0.3 0.3c-1.2 1.2-2.9 1.9-4.7 1.9 c-4.8 0-6.5-3.5-6.6-6.5c0-1.9 0.6-3.7 1.8-4.9C45.6 4.6 47.2 4 49.2 4z" class="style1"/><polygon points="75.6,2 75.6,4.2 81.4,4.2 81.4,19.1 83.7,19.1 83.7,4.2 89.5,4.2 89.5,2" class="style1"/><polygon points="9.4,15.3 5.5,7.1 3,2 0.5,2 8.3,17.8 9.4,20.2 18.3,2 15.8,2" class="style1"/><polygon points="67.3,0.8 58.4,19 60.9,19 67.3,5.7 73.7,19 76.2,19 68.5,3.2" class="style1"/></svg>